<?xml version="1.0" encoding="utf-8"?>
<!-- Generator: Adobe Illustrator 21.0.0, SVG Export Plug-In . SVG Version: 6.00 Build 0)  -->
<svg version="1.1" id="Capa_1" xmlns="http://www.w3.org/2000/svg" xmlns:xlink="http://www.w3.org/1999/xlink" x="0px" y="0px"
	 viewBox="0 0 397 593.4" style="enable-background:new 0 0 397 593.4;" xml:space="preserve">
<style type="text/css">
	.st0{fill:none;stroke:#25CBD3;stroke-width:14;stroke-miterlimit:10;}
</style>
<g>
	<polygon class="st0" points="171,586.4 223.7,586.4 245.5,559.6 245.5,511.5 280.3,424.7 341.9,361.2 389.9,252.2 383.9,141.6 
		321.7,48.8 202,7.4 83.5,47.8 16.9,140.4 7.1,253.2 57,359.6 122,426.3 150.8,512.2 151.4,560.2 	"/>
	<line class="st0" x1="149.2" y1="561.1" x2="244" y2="560.5"/>
	<line class="st0" x1="244" y1="513.7" x2="149.2" y2="514.4"/>
	<line class="st0" x1="54.4" y1="359.9" x2="390.8" y2="252.5"/>
	<line class="st0" x1="280.3" y1="425.3" x2="197.2" y2="512.5"/>
	<line class="st0" x1="120.1" y1="426.9" x2="197.2" y2="512.5"/>
	<line class="st0" x1="144.5" y1="331.2" x2="383.3" y2="139.4"/>
	<line class="st0" x1="307.5" y1="279.4" x2="342.5" y2="361.5"/>
	<line class="st0" x1="251.2" y1="455.6" x2="197.2" y2="426.9"/>
	<line class="st0" x1="198.2" y1="512.2" x2="198.2" y2="426.9"/>
	<line class="st0" x1="229.4" y1="478.7" x2="197.2" y2="426.9"/>
	<line class="st0" x1="123.9" y1="428.5" x2="196.6" y2="428.5"/>
	<line class="st0" x1="168.5" y1="480.6" x2="197.2" y2="426.9"/>
	<line class="st0" x1="123" y1="426.9" x2="163.4" y2="361.5"/>
	<line class="st0" x1="54.4" y1="359" x2="161.8" y2="360.5"/>
	<line class="st0" x1="342.5" y1="361.5" x2="234.5" y2="302.4"/>
	<line class="st0" x1="163.4" y1="361.5" x2="234.5" y2="302.4"/>
	<line class="st0" x1="137.2" y1="333.7" x2="163.4" y2="361.5"/>
	<line class="st0" x1="280.3" y1="425.3" x2="251.2" y2="363.7"/>
	<line class="st0" x1="224.1" y1="441.4" x2="255.7" y2="372.9"/>
	<line class="st0" x1="280.3" y1="425.3" x2="224.1" y2="441.4"/>
	<line class="st0" x1="197.2" y1="426.9" x2="253.4" y2="367.8"/>
	<line class="st0" x1="123" y1="426.9" x2="251.2" y2="363.7"/>
	<line class="st0" x1="197.2" y1="426.9" x2="175.1" y2="401"/>
	<line class="st0" x1="251.2" y1="363.7" x2="234.5" y2="302.4"/>
	<line class="st0" x1="342.5" y1="361.5" x2="251.2" y2="363.7"/>
	<line class="st0" x1="161.8" y1="365.3" x2="250.3" y2="364.7"/>
	<line class="st0" x1="307.5" y1="279.4" x2="243" y2="252.2"/>
	<line class="st0" x1="234.5" y1="302.4" x2="238.3" y2="256"/>
	<line class="st0" x1="389.3" y1="251.6" x2="247.1" y2="252.2"/>
	<line class="st0" x1="383.3" y1="139.4" x2="342.5" y2="218.4"/>
	<line class="st0" x1="390.8" y1="252.5" x2="342.5" y2="218.4"/>
	<line class="st0" x1="245.5" y1="253.2" x2="342.5" y2="218.4"/>
	<line class="st0" x1="54.4" y1="359.9" x2="89.2" y2="250"/>
	<line class="st0" x1="137.2" y1="333.7" x2="177.6" y2="219"/>
	<line class="st0" x1="137.2" y1="333.7" x2="177.6" y2="219"/>
	<line class="st0" x1="187.1" y1="140.4" x2="280.3" y2="222.2"/>
	<line class="st0" x1="137.2" y1="333.7" x2="177.6" y2="219"/>
	<line class="st0" x1="177.6" y1="219" x2="187.1" y2="140.4"/>
	<line class="st0" x1="239.9" y1="252.8" x2="187.1" y2="140.4"/>
	<line class="st0" x1="177.6" y1="219" x2="239.9" y2="252.8"/>
	<line class="st0" x1="26.6" y1="301.8" x2="89.2" y2="250"/>
	<line class="st0" x1="177.6" y1="219" x2="89.2" y2="250"/>
	<line class="st0" x1="156.2" y1="279.1" x2="89.2" y2="250"/>
	<line class="st0" x1="14" y1="141" x2="89.2" y2="250"/>
	<line class="st0" x1="3.9" y1="251.6" x2="89.2" y2="250.6"/>
	<line class="st0" x1="187.1" y1="140.4" x2="88.2" y2="252.8"/>
	<line class="st0" x1="13.4" y1="141" x2="187.1" y2="140.4"/>
	<line class="st0" x1="91.4" y1="249" x2="65.5" y2="141"/>
	<line class="st0" x1="200.7" y1="7.7" x2="187.1" y2="140.4"/>
	<line class="st0" x1="318.2" y1="48.1" x2="187.1" y2="140.4"/>
	<line class="st0" x1="245.5" y1="99.3" x2="220.3" y2="67.4"/>
	<line class="st0" x1="243" y1="22.2" x2="220.3" y2="67.4"/>
	<line class="st0" x1="187.1" y1="140.4" x2="220.3" y2="67.4"/>
	<line class="st0" x1="200.7" y1="7.7" x2="220.3" y2="67.4"/>
	<line class="st0" x1="318.2" y1="48.1" x2="220.3" y2="67.4"/>
	<line class="st0" x1="382" y1="142" x2="301.8" y2="122.1"/>
	<line class="st0" x1="322" y1="49.4" x2="301.8" y2="122.1"/>
	<line class="st0" x1="236.4" y1="183.7" x2="301.8" y2="122.1"/>
	<line class="st0" x1="321" y1="189.3" x2="243" y2="187.4"/>
	<line class="st0" x1="382" y1="142" x2="239.2" y2="186.2"/>
	<line class="st0" x1="187.1" y1="140.4" x2="84.1" y2="47.2"/>
	<line class="st0" x1="153.3" y1="140.7" x2="81.3" y2="48.5"/>
	<line class="st0" x1="14" y1="141" x2="113.5" y2="89.5"/>
	<line class="st0" x1="191.8" y1="94.6" x2="86.7" y2="46.6"/>
	<line class="st0" x1="318.2" y1="48.1" x2="236.4" y2="183.7"/>
	<line class="st0" x1="156.2" y1="279.1" x2="55.4" y2="357.1"/>
	<line class="st0" x1="91.4" y1="249" x2="54.4" y2="359.9"/>
</g>
</svg>
